<svg xmlns="http://www.w3.org/2000/svg" width="256" height="256" viewBox="0 0 256 256" version="1.1">
	<path d="M 86.170 57.240 C 85 61.886, 82.946 64.323, 79.250 65.449 C 77.783 65.896, 77 66.921, 77 68.393 C 77 69.635, 75.908 71.678, 74.572 72.932 C 73.237 74.187, 72.385 75.840, 72.679 76.606 C 73.092 77.682, 73.877 77.440, 76.138 75.538 C 79.458 72.743, 85.332 70.826, 87.825 71.723 C 88.746 72.054, 90.694 73.152, 92.154 74.163 C 93.614 75.173, 95.428 76, 96.185 76 C 97.274 76, 99.581 71.881, 100.106 69 C 100.156 68.725, 100.648 67.658, 101.198 66.629 C 101.758 65.583, 101.788 65.013, 101.265 65.336 C 100.750 65.654, 99.588 64.359, 98.681 62.457 C 97.774 60.556, 96.658 59, 96.201 59 C 95.744 59, 94.619 60.575, 93.701 62.500 C 91.630 66.844, 88.409 67.414, 89.464 63.250 C 90.563 58.910, 90.318 55.889, 88.737 54.308 C 87.456 53.027, 87.140 53.388, 86.170 57.240 M 180.500 70 C 180.840 70.550, 180.619 71, 180.008 71 C 179.397 71, 178.189 72.688, 177.322 74.750 C 175.818 78.331, 175.708 78.396, 174.887 76.201 L 174.028 73.902 171.264 76.736 C 168.059 80.021, 164.260 85.575, 165.920 84.550 C 166.722 84.054, 166.876 85.101, 166.455 88.176 C 165.949 91.875, 166.054 92.258, 167.182 90.825 C 167.907 89.904, 169.244 87.805, 170.154 86.161 C 171.064 84.517, 172.938 82.431, 174.319 81.527 C 176.782 79.913, 176.913 79.965, 181.272 84.325 C 183.716 86.768, 187.354 89.360, 189.357 90.085 C 191.361 90.809, 193 91.935, 193 92.586 C 193 93.237, 194.167 94.535, 195.594 95.470 C 198.142 97.139, 198.176 97.130, 197.479 94.934 C 196.898 93.103, 197.077 92.815, 198.466 93.349 C 199.400 93.707, 200.864 94, 201.721 94 C 203.004 94, 203.173 94.888, 202.683 99.032 C 201.967 105.077, 203.191 104.744, 205.593 98.240 C 206.556 95.633, 208.617 92.209, 210.172 90.631 C 214.196 86.550, 214.118 81.662, 210 79.840 C 208.350 79.109, 207 78.187, 207 77.791 C 207 76.274, 200.750 70.036, 199.812 70.616 C 199.178 71.008, 199.214 71.614, 199.913 72.313 C 201.260 73.660, 201.348 79.667, 200.033 80.480 C 199.215 80.985, 196.193 79.701, 185 74.088 C 184.175 73.675, 183.056 72.361, 182.513 71.168 C 181.970 69.976, 181.156 69, 180.704 69 C 180.252 69, 180.160 69.450, 180.500 70 M 201.500 73 C 202.495 74.100, 203.535 75, 203.810 75 C 204.085 75, 203.495 74.100, 202.500 73 C 201.505 71.900, 200.465 71, 200.190 71 C 199.915 71, 200.505 71.900, 201.500 73 M 107.082 85.918 C 105.814 87.186, 105.241 88.573, 105.690 89.286 C 106.231 90.146, 106.554 89.990, 106.800 88.750 C 107.206 86.701, 108.131 86.531, 109.800 88.200 C 110.733 89.133, 110.997 89.078, 110.985 87.950 C 110.976 87.153, 110.579 85.884, 110.103 85.132 C 109.404 84.029, 108.818 84.182, 107.082 85.918 M 85.200 87.200 C 84.540 87.860, 84 89.055, 84 89.855 C 84 91.055, 84.320 91.020, 85.829 89.655 C 86.835 88.745, 88.262 88, 89 88 C 89.738 88, 91.165 88.745, 92.171 89.655 C 93.842 91.167, 94 91.170, 94 89.690 C 94 86.596, 87.612 84.788, 85.200 87.200 M 176.500 89 C 176.138 89.585, 177.176 90, 179 90 C 180.824 90, 181.862 89.585, 181.500 89 C 181.160 88.450, 180.035 88, 179 88 C 177.965 88, 176.840 88.450, 176.500 89 M 178 95.500 C 178 96.325, 178.450 97, 179 97 C 179.550 97, 180 96.325, 180 95.500 C 180 94.675, 179.550 94, 179 94 C 178.450 94, 178 94.675, 178 95.500 M 164.079 96.583 C 164.127 97.748, 164.364 97.985, 164.683 97.188 C 164.972 96.466, 164.936 95.603, 164.604 95.271 C 164.272 94.939, 164.036 95.529, 164.079 96.583 M 94 98.195 C 94 98.853, 95.145 100.586, 96.544 102.046 L 99.088 104.702 96.994 110.016 C 95.842 112.939, 95.034 116.493, 95.200 117.915 C 95.476 120.297, 95.893 120.507, 100.500 120.585 C 108.037 120.714, 110.023 119.696, 109.884 115.775 C 109.820 113.974, 109.562 113.287, 109.311 114.250 C 109.059 115.213, 108.474 116, 108.009 116 C 107.087 116, 103.761 107.959, 104.055 106.440 C 104.618 103.530, 103.826 101.999, 101.750 101.985 C 100.513 101.976, 98.825 101.533, 98 101 C 96.092 99.767, 97.603 99.739, 101.758 100.931 C 104.481 101.712, 105.165 101.561, 106.002 99.996 C 107.558 97.089, 107.395 97, 100.500 97 C 96.125 97, 94 97.391, 94 98.195 M 191 99.500 C 191 100.325, 191.450 101, 192 101 C 192.550 101, 193 100.325, 193 99.500 C 193 98.675, 192.550 98, 192 98 C 191.450 98, 191 98.675, 191 99.500 M 181.213 104.188 C 179.021 106.379, 179.759 109, 182.566 109 C 184.760 109, 185.087 108.612, 184.816 106.327 C 184.456 103.282, 182.989 102.411, 181.213 104.188 M 98.866 109.394 C 97.871 111.579, 97.971 112.311, 99.496 113.996 C 100.494 115.098, 101.690 116, 102.155 116 C 103.606 116, 103.078 109.309, 101.525 108.021 C 100.309 107.012, 99.842 107.253, 98.866 109.394 M 170.500 111 C 171.495 112.100, 172.535 113, 172.810 113 C 173.085 113, 172.495 112.100, 171.500 111 C 170.505 109.900, 169.465 109, 169.190 109 C 168.915 109, 169.505 109.900, 170.500 111 M 44.624 114.863 C 41.862 117.915, 40.927 124.327, 42.949 126.349 C 43.684 127.084, 44 126.888, 44 125.700 C 44 124.765, 44.470 124, 45.044 124 C 45.618 124, 45.955 123.213, 45.794 122.250 C 45.596 121.072, 46.149 120.500, 47.486 120.500 C 48.583 120.500, 49.624 121.284, 49.810 122.250 C 50.006 123.267, 49.539 124, 48.696 124 C 46.635 124, 44.097 127.190, 45.722 127.737 C 46.526 128.007, 46.099 129.059, 44.472 130.814 C 41.778 133.719, 41.500 134.573, 42.956 135.473 C 44.176 136.227, 43.156 138.990, 41.643 139.031 C 41.014 139.049, 39.684 140.184, 38.687 141.554 C 36.966 143.917, 36.450 146.740, 36.831 151.714 C 37.046 154.524, 43.250 158.841, 48.232 159.646 C 50.284 159.978, 51.720 160.644, 51.423 161.125 C 51.125 161.606, 51.407 162, 52.048 162 C 52.691 162, 52.947 162.696, 52.618 163.552 C 52.277 164.442, 52.445 164.843, 53.011 164.493 C 53.901 163.943, 54.432 165.265, 54.118 167.250 C 54.053 167.662, 54.450 168, 55 168 C 55.550 168, 56 168.567, 56 169.261 C 56 170.416, 58.657 172.963, 63.328 176.286 C 65.083 177.535, 65.070 177.684, 63.013 180.043 C 61.450 181.836, 60.723 182.139, 60.324 181.164 C 59.836 179.974, 53.109 192.145, 53.030 194.358 C 53.014 194.831, 54.128 194.934, 55.507 194.588 C 56.886 194.242, 57.957 194.305, 57.889 194.729 C 57.494 197.157, 58.189 199, 59.500 199 C 60.325 199, 61 198.550, 61 198 C 61 196.390, 63.729 196.852, 64.390 198.574 C 64.930 199.980, 65.179 199.964, 66.723 198.420 C 67.969 197.174, 68.483 194.907, 68.567 190.290 C 68.712 182.327, 70.186 180.408, 75.119 181.761 C 80.503 183.238, 93.031 183.192, 98.777 181.673 C 104.589 180.138, 105.233 180.512, 104.973 185.275 C 104.545 193.130, 104.124 192.969, 117.126 189.917 C 126.632 187.685, 128.659 186.043, 121.750 186.172 C 113.452 186.327, 109 184.301, 109 180.369 C 109 177.934, 113.717 171.707, 114.974 172.484 C 115.355 172.719, 115.667 172.255, 115.667 171.452 C 115.667 170.189, 115.442 170.195, 114.005 171.496 C 111.888 173.412, 106.068 173.408, 96.923 171.484 C 88.275 169.665, 82.149 166.443, 81.360 163.298 C 80.477 159.779, 81.814 156.007, 84.280 155.064 C 86.399 154.254, 86.364 154.184, 83.500 153.519 C 81.850 153.136, 78.475 152.193, 76 151.423 C 73.525 150.654, 68.013 149.655, 63.750 149.203 C 56.530 148.437, 54.391 148.888, 57.151 150.594 C 58.746 151.579, 55.303 154, 52.309 154 C 50.141 154, 50.001 153.617, 50.017 147.750 C 50.038 140.237, 52.364 128.619, 54.500 125.359 C 56.666 122.053, 60.680 122.338, 66.053 126.179 L 70.500 129.357 67.044 125.669 C 62.745 121.080, 57.742 119.483, 53.809 121.445 C 51.191 122.752, 51.078 122.722, 52.013 120.975 C 52.562 119.950, 53.458 118.835, 54.005 118.497 C 55.443 117.608, 55.230 115.753, 53.750 116.267 C 53.063 116.506, 51.427 115.869, 50.115 114.851 C 47.151 112.550, 46.716 112.551, 44.624 114.863 M 172 114.935 C 172 116.700, 174.742 117.703, 180.149 117.914 C 183.319 118.039, 186.088 117.667, 186.458 117.068 C 186.875 116.394, 185.898 115.994, 183.809 115.985 C 181.989 115.976, 181.017 115.639, 181.649 115.235 C 182.281 114.831, 180.368 114.413, 177.399 114.308 C 174.430 114.202, 172 114.484, 172 114.935 M 120.031 117.500 C 120.031 118.050, 120.467 119.175, 121 120 C 121.533 120.825, 121.969 121.050, 121.969 120.500 C 121.969 119.950, 121.533 118.825, 121 118 C 120.467 117.175, 120.031 116.950, 120.031 117.500 M 130.269 120.693 C 131.242 120.947, 132.592 120.930, 133.269 120.656 C 133.946 120.382, 133.150 120.175, 131.500 120.195 C 129.850 120.215, 129.296 120.439, 130.269 120.693 M 121.015 122.750 C 121.023 123.162, 121.761 126.425, 122.654 130 C 123.548 133.575, 124.579 140.100, 124.946 144.500 L 125.613 152.500 127.221 149 C 128.760 145.652, 129.061 145.497, 134.165 145.442 C 140.431 145.375, 149 142.379, 149 140.256 C 149 139.235, 148.309 138.949, 146.750 139.323 C 140.359 140.858, 137.028 141.085, 135.209 140.112 C 134.108 139.523, 131.748 135.994, 129.964 132.270 C 127.051 126.190, 126.654 125.754, 126.067 127.994 C 125.450 130.347, 125.316 130.248, 123.714 126.244 C 122.168 122.379, 120.977 120.838, 121.015 122.750 M 167.630 126.789 C 165.844 129.680, 165.150 132.975, 166.193 133.619 C 166.871 134.038, 167.029 133.856, 166.595 133.155 C 166.203 132.520, 166.310 132, 166.833 132 C 167.355 132, 168.079 130.822, 168.440 129.382 C 169.117 126.685, 168.639 125.157, 167.630 126.789 M 82.655 128.457 C 80.941 132.924, 82.434 135, 87.359 135 C 88.567 135, 90.555 135.701, 91.777 136.557 C 93.403 137.695, 94 137.776, 94 136.857 C 94 135.921, 94.289 135.889, 95.133 136.733 C 96.424 138.024, 95.614 141, 93.972 141 C 93.373 141, 93.137 140.588, 93.448 140.084 C 93.759 139.581, 92.661 139.679, 91.007 140.303 C 86.691 141.933, 87.303 143.165, 92.250 142.807 C 95.898 142.544, 96.691 142.067, 97.847 139.443 C 99.165 136.454, 99.323 136.396, 105.042 136.809 C 109.721 137.148, 111.350 136.855, 113.195 135.342 C 114.463 134.302, 115.579 133.012, 115.676 132.476 C 115.773 131.939, 116.158 130.713, 116.533 129.750 C 116.931 128.727, 116.754 128, 116.107 128 C 115.498 128, 115 128.931, 115 130.068 L 115 132.136 112.031 130.022 C 109.624 128.308, 107.780 127.944, 102.281 128.097 C 98.552 128.201, 92.757 127.941, 89.405 127.518 C 84.143 126.855, 83.220 126.984, 82.655 128.457 M 155.206 129.781 C 155.090 131.188, 155.123 132.150, 155.280 131.919 C 155.437 131.689, 156.125 130.765, 156.808 129.867 C 157.806 128.556, 157.791 128.134, 156.734 127.728 C 155.883 127.402, 155.343 128.128, 155.206 129.781 M 146.229 133.187 C 146.727 134.682, 149 135.505, 149 134.190 C 149 133.653, 148.287 132.941, 147.416 132.606 C 146.443 132.233, 145.985 132.456, 146.229 133.187 M 197.333 133.595 C 197.333 135.170, 198.589 135.474, 199.435 134.105 C 199.740 133.612, 199.391 132.980, 198.661 132.700 C 197.931 132.420, 197.333 132.823, 197.333 133.595 M 102.269 133.693 C 103.242 133.947, 104.592 133.930, 105.269 133.656 C 105.946 133.382, 105.150 133.175, 103.500 133.195 C 101.850 133.215, 101.296 133.439, 102.269 133.693 M 109.500 134 C 109.840 134.550, 110.316 135, 110.559 135 C 110.802 135, 111 134.550, 111 134 C 111 133.450, 110.523 133, 109.941 133 C 109.359 133, 109.160 133.450, 109.500 134 M 189.895 139.661 C 187.911 140.192, 185.531 144.432, 186.414 145.861 C 186.772 146.439, 187.725 146.659, 188.532 146.349 C 190.280 145.679, 190.518 148.082, 188.867 149.733 C 188.244 150.356, 188.002 151.563, 188.329 152.416 C 189.149 154.552, 192 153.279, 192 150.778 C 192 148.920, 192.424 148.823, 197.657 149.476 C 205.215 150.421, 206 150.809, 206 153.607 C 206 155.552, 205.484 156, 203.243 156 C 201.727 156, 198.999 155.573, 197.181 155.052 C 194.114 154.172, 193.897 154.263, 194.187 156.302 C 194.467 158.269, 194.997 158.464, 199.215 158.163 C 201.808 157.977, 205.296 158.126, 206.965 158.492 C 209.593 159.070, 210 159.599, 210 162.441 C 210 165.410, 210.240 165.677, 212.522 165.241 C 214.489 164.865, 214.801 164.465, 213.940 163.427 C 213.332 162.695, 213.137 161.143, 213.507 159.978 C 214.022 158.356, 213.690 157.732, 212.090 157.313 C 209.881 156.736, 209.288 154.558, 211.044 153.473 C 211.618 153.118, 212.646 153.292, 213.330 153.859 C 214.234 154.609, 214.588 154.429, 214.633 153.195 C 214.668 152.263, 214.877 150.839, 215.098 150.032 C 215.403 148.916, 214.706 148.636, 212.193 148.863 C 208.647 149.184, 190.645 146.022, 191.448 145.219 C 191.713 144.954, 191.443 143.828, 190.848 142.717 C 189.953 141.044, 190.036 140.800, 191.333 141.297 C 192.418 141.714, 192.727 141.453, 192.342 140.449 C 192.036 139.652, 191.722 139.052, 191.643 139.116 C 191.564 139.180, 190.778 139.425, 189.895 139.661 M 155 144.778 C 155 146.281, 158.150 150, 159.423 150 C 160.173 150, 159.405 147.504, 157.961 145.250 C 156.228 142.546, 155 142.350, 155 144.778 M 161.554 143.946 C 159.752 144.611, 159.786 144.711, 162.010 145.292 C 164.693 145.994, 165.854 145.421, 164.433 144.097 C 163.920 143.618, 162.624 143.550, 161.554 143.946 M 171 144 C 171 145.264, 173.043 145.264, 175 144 C 176.169 143.245, 175.893 143.027, 173.750 143.015 C 172.238 143.007, 171 143.450, 171 144 M 180.276 145.329 C 180.755 146.767, 184 147.518, 184 146.190 C 184 145.664, 183.074 144.991, 181.943 144.695 C 180.634 144.353, 180.028 144.584, 180.276 145.329 M 175.920 146.404 C 177.486 148.291, 180.348 148.549, 179.755 146.750 C 179.529 146.063, 178.275 145.344, 176.970 145.154 C 174.897 144.852, 174.764 145.010, 175.920 146.404 M 165.352 149.696 C 165.433 150.688, 164.954 151.393, 164.286 151.262 C 163.618 151.131, 163.311 151.647, 163.603 152.408 C 164.100 153.703, 169.027 155.291, 169.893 154.436 C 170.108 154.223, 169.755 153.410, 169.107 152.629 C 168.460 151.849, 168.058 150.627, 168.215 149.915 C 168.372 149.202, 167.758 148.455, 166.852 148.256 C 165.762 148.016, 165.254 148.503, 165.352 149.696 M 182.432 151.110 C 181.470 152.667, 182.644 153.299, 184.534 152.241 C 186.039 151.399, 186.050 151.233, 184.641 150.693 C 183.774 150.360, 182.780 150.548, 182.432 151.110 M 165.868 155.723 C 164.510 156.038, 164.426 156.512, 165.368 158.543 C 165.991 159.886, 167.047 160.988, 167.715 160.992 C 168.383 160.996, 171 161.703, 173.530 162.562 C 176.060 163.421, 178.663 163.913, 179.315 163.655 C 179.967 163.398, 179.071 162.870, 177.324 162.483 C 175.002 161.969, 174.308 161.362, 174.744 160.226 C 175.118 159.250, 174.931 158.924, 174.242 159.350 C 173.624 159.732, 172.854 159.116, 172.482 157.942 C 172.117 156.794, 171.240 156.078, 170.532 156.350 C 169.823 156.621, 168.851 156.507, 168.372 156.095 C 167.892 155.682, 166.766 155.515, 165.868 155.723 M 199.638 160.500 C 199.212 161.611, 199.781 162, 201.831 162 C 203.354 162, 205.140 162.540, 205.800 163.200 C 206.733 164.133, 207 163.937, 207 162.317 C 207 159.246, 200.715 157.695, 199.638 160.500 M 162.333 161.456 C 162.333 162.257, 162.716 162.676, 163.183 162.387 C 163.650 162.098, 163.774 161.443, 163.457 160.931 C 162.649 159.623, 162.333 159.770, 162.333 161.456 M 164.567 162.892 C 163.986 163.832, 163.709 169.124, 164.064 172.500 C 164.416 175.847, 164.061 177, 162.680 177 C 160.514 177, 156.910 181.885, 157.303 184.291 C 157.918 188.067, 160.248 191.997, 161.911 192.063 C 162.896 192.103, 162.610 192.483, 161.158 193.065 C 159.869 193.582, 158.407 193.751, 157.908 193.443 C 156.705 192.700, 156.763 193.386, 158.161 196.453 C 159.493 199.377, 161.565 199.703, 164.120 197.392 C 165.787 195.883, 165.876 195.960, 165.562 198.642 C 165.379 200.214, 165.177 202.048, 165.114 202.719 C 165.051 203.389, 164.383 203.700, 163.629 203.411 C 161.108 202.444, 158.740 206.010, 159.361 209.838 C 159.673 211.757, 160.377 213.777, 160.927 214.327 C 162.326 215.726, 169.183 215.315, 170.161 213.774 C 171.484 211.689, 171.111 206.603, 169.462 204.249 C 168.589 203.003, 168.121 200.853, 168.380 199.277 C 168.631 197.750, 168.873 195.439, 168.918 194.143 C 168.979 192.402, 169.421 191.948, 170.611 192.404 C 171.824 192.870, 172.071 192.587, 171.609 191.261 C 171.207 190.105, 171.729 190.358, 173.131 192 C 175.193 194.414, 175.242 194.422, 174.566 192.250 C 173.910 190.143, 174.155 190, 178.433 190 C 180.945 190, 183.034 190.338, 183.077 190.750 C 183.119 191.162, 183.363 192.400, 183.619 193.500 C 183.875 194.600, 184.170 197.158, 184.274 199.185 C 184.378 201.212, 184.655 202.679, 184.889 202.444 C 185.124 202.209, 185.920 202.519, 186.658 203.131 C 187.645 203.950, 188 203.948, 188 203.122 C 188 202.505, 188.450 202, 189 202 C 189.550 202, 189.947 202.338, 189.882 202.750 C 189.564 204.764, 190.157 205.894, 191.750 206.311 C 196.215 207.477, 186.816 206.808, 181.642 205.591 C 176.377 204.352, 175.939 204.368, 177.317 205.746 C 178.161 206.589, 180.347 207.391, 182.176 207.527 C 187.339 207.911, 187.657 208.064, 185.280 209.020 C 182.663 210.073, 181.472 213.891, 182.556 217.750 C 182.980 219.262, 183.292 220.725, 183.247 221 C 183.203 221.275, 185.335 221.500, 187.985 221.500 C 190.635 221.500, 192.615 221.194, 192.385 220.819 C 192.155 220.445, 192.425 219.856, 192.984 219.510 C 193.543 219.165, 194 217.559, 194 215.941 C 194 213.589, 194.435 213, 196.171 213 C 198.936 213, 202.030 210.242, 201.326 208.406 C 201.029 207.633, 199.934 207, 198.893 207 C 196.241 207, 196.521 205.208, 199.234 204.820 L 201.468 204.500 199.371 202.500 C 197.173 200.404, 195.610 195, 197.202 195 C 197.710 195, 197.985 194.029, 197.813 192.843 C 197.384 189.884, 199.663 189.341, 200.535 192.195 C 202.080 197.252, 206.210 204.989, 207.078 204.452 C 207.585 204.138, 208 204.359, 208 204.941 C 208 205.523, 207.100 206, 206 206 C 204.900 206, 204 206.448, 204 206.995 C 204 207.576, 205.495 207.751, 207.596 207.418 C 211.142 206.854, 211.184 206.888, 210.547 209.786 C 209.610 214.054, 212.626 220.009, 215.601 219.762 C 216.841 219.660, 217.656 219.252, 217.412 218.857 C 217.167 218.462, 217.430 217.853, 217.995 217.503 C 219.449 216.604, 218.840 211, 217.287 211 C 216.579 211, 216 210.298, 216 209.441 C 216 208.484, 216.483 208.155, 217.250 208.588 C 217.938 208.976, 217.559 208.377, 216.408 207.255 C 214.970 205.854, 213.485 205.376, 211.658 205.725 C 210.064 206.030, 209 205.786, 209 205.117 C 209 204.502, 209.702 204, 210.559 204 C 211.416 204, 211.821 203.519, 211.458 202.932 C 211.095 202.344, 210.168 202.105, 209.399 202.400 C 208.629 202.696, 208 202.501, 208 201.969 C 208 201.436, 207.438 201.112, 206.750 201.250 C 206.037 201.393, 205.532 200.555, 205.574 199.300 C 205.615 198.090, 205.206 197.372, 204.667 197.706 C 204.083 198.067, 203.914 197.437, 204.249 196.155 C 204.560 194.968, 204.405 194.249, 203.907 194.558 C 203.076 195.071, 202.617 193.394, 202.730 190.261 C 202.754 189.579, 202.375 189.268, 201.887 189.570 C 201.399 189.871, 201 189.649, 201 189.077 C 201 188.453, 202.987 188.161, 205.954 188.348 C 208.679 188.521, 210.701 188.326, 210.448 187.916 C 210.195 187.506, 210.553 186.943, 211.244 186.664 C 212.190 186.283, 212.200 186.138, 211.281 186.079 C 210.611 186.036, 210.200 185.438, 210.367 184.750 C 210.535 184.063, 210.483 183.838, 210.253 184.250 C 209.627 185.369, 206 185.156, 206 184 C 206 183.450, 205.114 183, 204.031 183 C 202.776 183, 202.253 183.496, 202.588 184.369 C 202.909 185.206, 202.218 185.977, 200.807 186.355 C 197.377 187.273, 197.177 187.195, 196.706 184.750 L 196.272 182.500 196.136 184.750 C 196.061 185.988, 195.662 187.050, 195.250 187.112 C 188.548 188.111, 188 187.993, 188 185.561 C 188 184.103, 187.307 182.966, 186.250 182.689 C 184.643 182.269, 184.649 182.223, 186.322 182.116 C 189.147 181.936, 188.159 176.810, 185.007 175.295 C 182.556 174.117, 182.550 174.089, 184.750 174.045 C 186.318 174.014, 187 173.394, 187 172 C 187 170.533, 187.667 170, 189.500 170 C 194.051 170, 192.092 168.200, 186.750 167.473 C 183.863 167.081, 178.521 165.688, 174.879 164.380 C 167.763 161.822, 165.435 161.486, 164.567 162.892 M 197 163.883 C 197 164.369, 197.900 165.002, 199 165.290 C 200.300 165.630, 201 165.320, 201 164.406 C 201 163.633, 200.100 163, 199 163 C 197.900 163, 197 163.398, 197 163.883 M 165 165.418 C 165 166.198, 164.727 167.548, 164.393 168.418 C 164.059 169.288, 164.188 170, 164.680 170 C 165.172 170, 165.677 168.650, 165.803 167 C 165.929 165.350, 165.800 164, 165.516 164 C 165.232 164, 165 164.638, 165 165.418 M 186.269 165.693 C 187.242 165.947, 188.592 165.930, 189.269 165.656 C 189.946 165.382, 189.150 165.175, 187.500 165.195 C 185.850 165.215, 185.296 165.439, 186.269 165.693 M 214.161 166.692 C 213.231 167.063, 213.536 167.588, 215.161 168.409 C 216.976 169.326, 217.780 169.317, 218.750 168.367 C 219.438 167.694, 220 166.886, 220 166.571 C 220 165.874, 216.006 165.956, 214.161 166.692 M 210 168.059 C 210 168.641, 210.450 168.840, 211 168.500 C 211.550 168.160, 212 167.684, 212 167.441 C 212 167.198, 211.550 167, 211 167 C 210.450 167, 210 167.477, 210 168.059 M 200.276 169.980 C 200.194 171.069, 200.492 172.186, 200.939 172.462 C 201.385 172.738, 201.750 171.847, 201.750 170.482 C 201.750 167.543, 200.492 167.115, 200.276 169.980 M 213 170.044 C 213 170.618, 212.424 170.955, 211.720 170.794 C 211.017 170.632, 210.229 170.950, 209.970 171.500 C 209.712 172.050, 211.188 172.640, 213.250 172.810 C 215.313 172.981, 217 172.686, 217 172.154 C 217 171.622, 216.093 171.424, 214.985 171.714 C 213.436 172.119, 213.114 171.867, 213.592 170.621 C 213.934 169.729, 213.941 169, 213.607 169 C 213.273 169, 213 169.470, 213 170.044 M 176.500 173 C 177.600 173.473, 179.175 173.859, 180 173.859 C 180.945 173.859, 180.761 173.542, 179.500 173 C 178.400 172.527, 176.825 172.141, 176 172.141 C 175.055 172.141, 175.239 172.458, 176.500 173 M 195.750 173.662 C 196.438 173.940, 197.563 173.940, 198.250 173.662 C 198.938 173.385, 198.375 173.158, 197 173.158 C 195.625 173.158, 195.063 173.385, 195.750 173.662 M 214.607 174.826 C 213.758 176.200, 215.174 180.108, 216.377 179.714 C 218.182 179.122, 218.405 174, 216.625 174 C 215.796 174, 214.888 174.372, 214.607 174.826 M 201 176.359 C 201 178.456, 202.079 181, 202.968 181 C 203.964 181, 203.013 176.126, 201.881 175.426 C 201.396 175.127, 201 175.547, 201 176.359 M 210 177.531 C 210 178.924, 210.672 180.321, 211.494 180.636 C 212.316 180.952, 212.740 181.612, 212.435 182.105 C 212.131 182.597, 212.411 183, 213.058 183 C 213.741 183, 214.014 183.837, 213.711 184.999 C 213.423 186.098, 213.665 187.293, 214.248 187.654 C 214.921 188.069, 215.009 187.824, 214.490 186.985 C 213.896 186.023, 214.128 185.835, 215.336 186.299 C 216.251 186.650, 217 186.601, 217 186.191 C 217 185.083, 213.934 180.683, 212.163 179.250 C 211.264 178.523, 211.103 178, 211.777 178 C 212.415 178, 212.678 177.325, 212.362 176.500 C 211.449 174.123, 210 174.756, 210 177.531 M 215.731 177.080 C 216.085 178.432, 216.538 178.886, 216.788 178.137 C 217.028 177.415, 216.750 176.350, 216.168 175.768 C 215.426 175.026, 215.296 175.417, 215.731 177.080 M 179.813 181.683 C 180.534 181.972, 181.397 181.936, 181.729 181.604 C 182.061 181.272, 181.471 181.036, 180.417 181.079 C 179.252 181.127, 179.015 181.364, 179.813 181.683 M 165.072 187.865 C 164.398 189.125, 164.104 190.830, 164.420 191.652 C 164.930 192.980, 165.163 192.980, 166.493 191.650 C 167.547 190.596, 167.740 189.473, 167.145 187.863 L 166.298 185.574 165.072 187.865 M 169.165 186.877 C 168.167 187.510, 168.407 187.873, 170.122 188.322 C 171.382 188.651, 172.620 188.714, 172.873 188.460 C 173.126 188.207, 172.782 188, 172.108 188 C 171.434 188, 171.160 187.550, 171.500 187 C 172.250 185.786, 170.991 185.719, 169.165 186.877 M 193.118 189.750 C 193.554 192.507, 192.785 195, 191.500 195 C 190.675 195, 190 195.402, 190 195.893 C 190 196.956, 192.877 198.194, 193.891 197.567 C 195.048 196.852, 195.185 189, 194.041 189 C 193.468 189, 193.053 189.338, 193.118 189.750 M 79.250 204.742 C 82.963 204.934, 89.037 204.934, 92.750 204.742 C 96.463 204.549, 93.425 204.392, 86 204.392 C 78.575 204.392, 75.537 204.549, 79.250 204.742 M 187 212 C 187 212.550, 187.477 213, 188.059 213 C 188.641 213, 188.840 212.550, 188.500 212 C 188.160 211.450, 187.684 211, 187.441 211 C 187.198 211, 187 211.450, 187 212 M 191 212 C 191 212.550, 191.477 213, 192.059 213 C 192.641 213, 192.840 212.550, 192.500 212 C 192.160 211.450, 191.684 211, 191.441 211 C 191.198 211, 191 211.450, 191 212 M 116.813 215.683 C 117.534 215.972, 118.397 215.936, 118.729 215.604 C 119.061 215.272, 118.471 215.036, 117.417 215.079 C 116.252 215.127, 116.015 215.364, 116.813 215.683 M 69.762 216.707 C 71.006 216.946, 72.806 216.937, 73.762 216.687 C 74.718 216.437, 73.700 216.241, 71.500 216.252 C 69.300 216.263, 68.518 216.468, 69.762 216.707 M 101.813 216.683 C 102.534 216.972, 103.397 216.936, 103.729 216.604 C 104.061 216.272, 103.471 216.036, 102.417 216.079 C 101.252 216.127, 101.015 216.364, 101.813 216.683" stroke="none" fill="#000000" fill-rule="evenodd"/>
</svg>